<svg xmlns="http://www.w3.org/2000/svg" version="1.1" xmlns:xlink="http://www.w3.org/1999/xlink" xmlns:svgjs="http://svgjs.com/svgjs" width="1440" height="100" preserveAspectRatio="none" viewBox="0 0 1440 100"><g mask="url(&quot;#SvgjsMask1671&quot;)" fill="none"><path d="M 0,9 C 96,10 288,14.6 480,14 C 672,13.4 768,5.6 960,6 C 1152,6.4 1344,14 1440,16L1440 100L0 100z" fill="rgba(69, 211, 211, 1)"></path><path d="M 0,33 C 144,34.6 432,42.2 720,41 C 1008,39.8 1296,29.8 1440,27L1440 100L0 100z" fill="rgba(234, 83, 83, 1)"></path><path d="M 0,58 C 96,60.6 288,71.6 480,71 C 672,70.4 768,56.4 960,55 C 1152,53.6 1344,62.2 1440,64L1440 100L0 100z" fill="rgba(84, 158, 242, 1)"></path><path d="M 0,77 C 144,81.4 432,97.8 720,99 C 1008,100.2 1296,86.2 1440,83L1440 100L0 100z" fill="rgba(252, 175, 74, 1)"></path></g><defs><mask id="SvgjsMask1671"><rect width="1440" height="100" fill="#ffffff"></rect></mask></defs></svg>